<?xml version="1.0" standalone="no"?>
<!DOCTYPE svg PUBLIC "-//W3C//DTD SVG 20010904//EN"
 "http://www.w3.org/TR/2001/REC-SVG-20010904/DTD/svg10.dtd">
<svg version="1.0" xmlns="http://www.w3.org/2000/svg"
 width="888.000000pt" height="888.000000pt" viewBox="0 0 888.000000 888.000000"
 preserveAspectRatio="xMidYMid meet">
<metadata>
Created by potrace 1.11, written by Peter Selinger 2001-2013
</metadata>
<g transform="translate(0.000000,888.000000) scale(0.100000,-0.100000)"
fill="#000000" stroke="none">
<path d="M6570 7103 c-107 -10 -216 -26 -305 -42 -55 -11 -156 -24 -225 -31
-161 -15 -386 -60 -525 -105 -120 -39 -355 -149 -355 -166 0 -6 3 -9 8 -7 4 2
48 24 97 49 197 101 398 158 675 193 25 3 -61 -30 -190 -73 -274 -91 -452
-160 -871 -339 -602 -257 -997 -387 -2319 -767 -549 -158 -729 -217 -1004
-327 -83 -33 -178 -66 -211 -73 -134 -29 -375 -139 -544 -249 -346 -225 -604
-554 -720 -921 -13 -38 -26 -77 -29 -85 -4 -8 -9 48 -12 125 l-6 140 -2 -170
c-1 -94 -9 -225 -17 -290 -8 -66 -15 -184 -15 -262 0 -342 136 -735 359 -1033
74 -100 228 -251 329 -323 263 -189 594 -315 1077 -411 321 -64 762 -137 885
-148 266 -23 794 40 1069 127 41 13 77 23 79 21 1 -2 -19 -23 -45 -46 -26 -24
-41 -39 -33 -35 25 15 122 87 176 133 29 23 105 69 170 102 66 33 160 91 209
129 69 53 156 102 380 214 304 152 647 338 925 501 240 141 566 302 1165 576
840 383 1189 561 1480 755 225 149 376 287 460 418 9 15 25 27 34 27 24 0 33
11 20 26 -15 18 45 136 66 128 26 -10 38 6 19 27 -16 18 -16 23 4 91 33 113
42 182 42 308 0 285 -98 572 -288 840 -85 121 -289 327 -412 417 -99 73 -274
178 -357 214 -108 47 -258 99 -287 99 -55 0 -188 50 -257 96 -37 24 -92 55
-123 69 -146 65 -387 97 -576 78z m270 -123 c288 -40 326 -55 447 -176 40 -41
79 -74 86 -74 16 0 72 -75 92 -124 17 -39 20 -133 5 -156 -7 -12 -18 -8 -62
23 -29 20 -90 70 -136 112 -84 77 -92 82 -92 65 0 -12 192 -177 243 -209 l37
-23 -20 -36 c-12 -21 -32 -50 -46 -65 l-24 -29 -44 26 c-24 14 -80 53 -126 86
-45 34 -84 59 -87 57 -5 -6 147 -120 200 -150 40 -22 45 -33 24 -51 -44 -36
-140 -106 -147 -106 -9 0 -231 164 -291 215 -43 37 -43 36 3 -8 26 -25 97 -82
158 -128 60 -45 110 -86 110 -91 0 -15 -163 -91 -176 -82 -7 5 -65 49 -129 98
-63 49 -117 87 -120 84 -3 -2 49 -46 115 -97 66 -51 120 -96 120 -100 0 -8
-128 -61 -146 -61 -6 0 -29 14 -50 31 -56 44 -126 78 -176 84 l-43 5 50 -13
c59 -16 84 -28 148 -75 27 -19 45 -38 40 -42 -4 -5 -59 -22 -122 -40 l-114
-31 -55 38 c-30 20 -76 57 -104 81 -27 25 -51 42 -54 39 -5 -5 91 -84 171
-142 l28 -21 -134 -34 -135 -34 -60 37 c-33 20 -80 52 -104 71 -24 19 -46 33
-49 30 -6 -6 16 -23 112 -86 42 -28 76 -53 74 -54 -1 -2 -42 -12 -90 -22 l-88
-19 -55 45 c-30 25 -57 43 -59 40 -3 -3 15 -22 41 -43 55 -45 54 -46 -75 -69
l-93 -17 -52 40 c-28 22 -86 68 -128 101 -43 34 -78 57 -78 53 0 -4 52 -48
115 -98 63 -49 114 -93 115 -96 0 -3 -44 -11 -97 -18 -54 -7 -105 -14 -113
-16 -8 -3 -56 31 -109 76 -51 45 -91 75 -89 68 2 -8 38 -43 80 -79 42 -36 74
-66 73 -68 -4 -5 -234 -31 -272 -32 -24 0 -48 15 -110 68 -119 102 -127 105
-29 12 l89 -85 -49 -6 c-28 -4 -94 -10 -148 -14 l-98 -7 -82 84 c-45 45 -92
96 -103 113 -12 16 -25 27 -28 23 -9 -9 83 -121 141 -171 24 -21 44 -42 44
-46 0 -5 -71 -12 -157 -17 -182 -10 -158 -20 -295 115 -49 47 -88 81 -88 76 0
-13 48 -64 129 -138 35 -32 62 -60 59 -62 -2 -2 -67 -7 -144 -11 l-140 -7 -57
63 c-31 35 -57 59 -57 53 0 -6 23 -33 52 -62 28 -28 49 -53 47 -55 -2 -2 -52
-6 -110 -9 l-106 -7 -93 75 c-52 41 -99 75 -104 75 -12 0 -3 -9 93 -85 l74
-60 -33 -6 c-18 -4 -92 -10 -164 -14 l-131 -7 -29 31 c-17 17 -34 31 -40 31
-5 0 5 -16 24 -35 l34 -35 -40 0 c-21 0 -70 -3 -107 -7 l-68 -6 -55 58 c-29
32 -56 56 -59 53 -3 -3 15 -29 41 -57 26 -28 45 -53 43 -55 -2 -2 -80 -13
-174 -25 -169 -21 -451 -30 -508 -16 -15 4 -85 2 -155 -4 -70 -6 -260 -15
-422 -21 -162 -5 -338 -12 -390 -14 -55 -3 -89 -2 -80 3 46 27 483 166 790
252 882 249 1358 391 1730 518 265 90 386 137 740 286 721 304 1106 428 1515
489 50 7 223 -4 365 -24z m609 -139 c7 -5 12 -14 9 -21 -2 -7 -10 -4 -22 9
-19 21 -12 28 13 12z m230 -136 c359 -151 666 -412 861 -730 81 -132 110 -207
112 -293 l1 -77 6 60 6 60 23 -75 c27 -90 52 -219 52 -266 l0 -35 -32 23 c-18
13 -86 67 -152 121 -65 54 -143 114 -172 134 -53 35 -54 37 -56 87 l-1 51 -6
-47 -6 -46 -59 24 c-40 16 -63 21 -70 14 -14 -14 -2 -23 67 -50 33 -13 60 -28
62 -34 1 -6 10 -87 20 -181 10 -93 20 -176 23 -184 9 -25 -15 -8 -163 114
l-147 120 5 145 c5 168 -11 160 -20 -10 -3 -58 -10 -108 -16 -111 -5 -4 -5
-15 2 -28 8 -13 11 -69 9 -156 l-3 -135 -145 121 c-120 100 -146 126 -148 150
-3 25 12 150 34 283 4 24 3 28 -5 15 -14 -23 -37 -137 -46 -229 -4 -41 -12
-78 -19 -82 -8 -6 -8 -10 0 -15 7 -5 14 -65 18 -147 l6 -140 -32 31 c-116 109
-333 303 -340 303 -23 0 8 -33 185 -196 l192 -177 17 -116 c10 -64 17 -127 15
-140 -2 -22 -4 -22 -58 20 -30 24 -97 80 -147 123 -104 90 -101 82 -84 238 5
37 5 65 2 62 -3 -3 -9 -50 -15 -105 l-10 -99 -87 77 -87 78 -1 68 c0 53 -3 67
-15 67 -11 0 -15 -12 -15 -45 0 -25 -3 -45 -7 -45 -4 0 -28 18 -54 40 -45 38
-79 51 -79 31 0 -5 29 -36 65 -67 l65 -58 0 -195 0 -196 -126 125 -126 125 7
85 c3 46 8 98 11 115 4 24 3 26 -4 10 -5 -11 -13 -45 -16 -75 -4 -30 -10 -68
-13 -84 l-5 -28 -42 41 c-23 23 -46 41 -51 41 -5 0 14 -24 42 -52 l52 -53 -9
-149 c-5 -81 -10 -150 -12 -152 -2 -2 -34 27 -70 64 l-66 67 9 74 c6 41 8 79
6 85 -6 16 -27 -64 -27 -102 0 -22 -4 -32 -12 -30 -7 3 -60 57 -118 121 -58
64 -107 112 -108 106 -2 -5 31 -48 75 -95 43 -47 95 -106 116 -130 l38 -43 -7
-135 -7 -135 -39 31 c-22 17 -64 53 -94 81 l-54 49 0 103 c0 62 -4 106 -11
110 -7 5 -10 -23 -9 -87 1 -51 1 -96 1 -100 -1 -5 -157 154 -193 196 -5 6 -8
6 -8 0 0 -5 47 -59 103 -119 l104 -110 12 -115 c6 -63 15 -137 18 -165 l6 -50
-59 50 c-144 120 -299 262 -451 409 -90 87 -163 154 -163 149 0 -17 368 -371
520 -502 80 -68 148 -127 152 -130 4 -4 16 -48 27 -99 18 -88 26 -111 35 -101
2 2 -4 41 -14 87 -10 45 -16 82 -13 82 3 0 37 -23 77 -51 39 -29 72 -52 73
-53 4 -3 33 -240 29 -243 -5 -6 -278 150 -390 223 l-104 67 -26 131 c-26 130
-44 200 -45 181 -1 -5 12 -73 28 -150 16 -77 27 -142 25 -144 -11 -12 -285
205 -459 364 -123 111 -125 113 -45 31 100 -104 231 -216 390 -334 63 -47 116
-86 118 -88 8 -6 58 -284 51 -284 -7 0 -197 141 -266 197 -12 10 -29 43 -37
73 -14 50 -15 51 -10 13 3 -24 2 -43 -1 -43 -9 0 -99 79 -317 277 -138 127
-187 164 -176 134 4 -11 361 -336 446 -406 58 -49 61 -52 77 -125 9 -41 27
-119 39 -172 13 -54 20 -98 15 -98 -16 0 -321 237 -341 264 -3 5 -10 41 -13
80 -4 39 -12 80 -16 91 -10 21 -4 -72 8 -130 5 -24 3 -28 -8 -19 -8 6 -72 58
-144 116 -151 122 -274 212 -280 206 -3 -2 35 -33 83 -69 l87 -64 17 -80 c27
-128 46 -235 42 -235 -7 0 -149 126 -289 254 -125 115 -130 119 -50 37 50 -51
147 -142 218 -203 70 -61 130 -120 132 -132 3 -12 18 -86 34 -166 16 -80 33
-158 37 -174 5 -23 4 -27 -7 -21 -113 67 -520 373 -526 396 -3 10 -9 16 -14
13 -10 -6 -74 46 -222 179 -48 44 -90 77 -93 75 -5 -6 128 -128 241 -222 39
-32 73 -66 77 -75 11 -24 70 -330 66 -341 -7 -20 -292 223 -465 395 -100 100
-178 174 -172 164 32 -61 435 -436 601 -560 45 -33 47 -37 73 -139 33 -125 75
-243 116 -324 17 -32 28 -60 26 -62 -6 -6 -333 264 -420 347 -71 67 -80 80
-98 139 -17 60 -77 236 -115 338 -9 24 -18 41 -21 38 -3 -2 25 -92 61 -198 36
-107 66 -198 66 -203 0 -16 -90 77 -193 200 -55 66 -104 122 -109 123 -19 8
-5 -18 47 -83 30 -38 55 -75 55 -82 0 -7 4 -12 9 -10 4 1 55 -48 113 -108 89
-94 106 -118 117 -160 7 -27 16 -55 21 -60 9 -11 70 -156 70 -165 -1 -3 -10 6
-21 20 -12 14 -23 23 -26 20 -7 -8 -243 231 -243 247 0 7 -6 13 -12 13 -15 0
-110 111 -164 190 -20 30 -65 110 -99 177 -64 125 -136 238 -225 353 -28 36
-86 116 -131 178 -209 294 -497 575 -776 757 l-91 60 -12 64 c-6 35 -10 65 -8
66 2 2 89 10 193 18 l190 14 62 -34 c68 -38 220 -96 236 -90 6 2 -5 9 -24 17
-19 7 -79 34 -134 59 l-99 46 44 7 c116 17 151 11 254 -43 54 -28 100 -49 103
-46 3 3 -31 24 -75 46 -44 22 -83 45 -87 51 -4 6 13 10 47 11 29 1 99 4 156 8
l103 6 67 -37 c69 -39 82 -44 82 -30 0 4 -26 21 -57 37 l-58 29 113 9 113 9
81 -51 c44 -29 83 -50 85 -47 3 2 -25 23 -62 46 -36 24 -63 45 -60 48 3 3 60
9 127 13 l122 8 70 -45 c64 -41 86 -51 86 -40 0 3 -28 22 -62 43 l-63 37 40 7
c22 4 95 10 161 14 l122 7 63 -40 c109 -67 160 -94 166 -88 8 7 10 6 -62 46
-33 18 -78 44 -100 59 l-40 25 137 13 138 13 64 -45 c68 -48 154 -90 163 -81
3 3 -19 16 -48 29 -49 22 -161 96 -149 98 3 0 72 9 154 18 l150 19 92 -64 c50
-35 95 -64 98 -64 20 0 -4 22 -76 69 -94 63 -96 61 54 84 l86 14 49 -33 c47
-33 99 -50 60 -19 -18 13 -17 14 5 18 16 3 12 5 -13 6 -19 0 -44 7 -54 15 -18
13 -18 14 1 19 10 3 56 13 102 21 76 14 85 14 108 0 28 -19 31 -31 7 -37 -10
-2 -6 -3 9 -1 18 2 39 -7 70 -31 56 -45 73 -45 22 -1 -28 25 -35 36 -24 39 8
2 64 16 123 31 l108 26 61 -26 c33 -14 62 -23 64 -21 3 2 -19 14 -47 26 -29
12 -50 23 -48 25 2 3 49 20 103 40 92 33 100 34 125 19 20 -11 22 -12 9 0 -10
8 -18 16 -18 19 0 3 40 22 90 43 l89 37 38 -29 c60 -46 72 -49 23 -5 -25 22
-43 42 -40 44 3 3 36 21 75 41 l69 37 54 -36 c29 -19 59 -33 65 -31 7 2 -12
18 -40 36 -29 18 -53 36 -53 39 0 4 38 28 85 53 l84 46 48 -32 c92 -61 103
-67 103 -57 0 5 -32 29 -72 52 l-72 43 24 16 c14 9 55 39 93 68 l69 52 85 -51
c46 -27 87 -47 90 -45 3 3 -31 27 -76 53 -45 26 -81 49 -80 53 2 17 122 102
137 98 9 -3 40 -15 69 -26 29 -11 54 -17 57 -12 3 4 -21 19 -54 32 -33 13 -60
28 -60 34 0 6 22 33 50 60 27 27 48 51 45 53 -2 3 -33 -19 -69 -47 -58 -45
-86 -60 -86 -47 0 3 5 17 12 33 6 15 14 65 17 110 l6 83 75 -50 c41 -27 76
-47 78 -45 9 9 -14 29 -91 79 -69 44 -88 62 -119 115 l-38 63 31 -6 c17 -3 79
-26 138 -51z m-854 -833 c-27 -22 -115 -54 -132 -47 -14 6 -1 13 52 30 79 26
94 29 80 17z m-148 -57 c3 -10 -167 -75 -194 -75 -20 0 -66 20 -60 26 8 9 220
63 236 61 8 -1 16 -7 18 -12z m-252 -67 c14 -6 25 -15 25 -19 0 -4 -52 -19
-114 -34 -112 -26 -116 -26 -140 -8 -14 10 -26 21 -26 24 0 5 179 46 212 48 9
1 29 -4 43 -11z m2032 -224 c43 -36 112 -93 153 -126 41 -33 83 -66 93 -74 9
-7 17 -11 17 -7 0 4 5 2 12 -5 14 -14 11 -123 -7 -217 -25 -128 -13 -127 -155
-20 -69 51 -142 108 -163 126 l-37 34 -15 135 c-8 74 -15 159 -15 188 0 49 1
52 20 42 11 -6 55 -40 97 -76z m-247 -192 c74 -64 139 -119 145 -124 5 -4 15
-45 22 -91 l12 -82 -5 74 c-5 61 -3 73 8 64 7 -5 60 -48 119 -94 58 -46 120
-96 139 -110 l34 -26 -17 -44 c-9 -24 -26 -58 -37 -76 l-19 -32 -83 46 c-109
60 -242 149 -353 238 -137 108 -125 86 -125 246 0 110 3 139 13 133 6 -4 73
-59 147 -122z m-5240 91 c0 -9 15 -39 33 -67 17 -27 44 -83 58 -123 l26 -73
-57 0 c-34 0 -64 6 -76 15 -19 14 -19 14 1 15 15 1 10 6 -17 21 -22 11 -53 43
-76 77 -37 54 -82 135 -82 147 0 3 43 5 95 5 82 0 95 -2 95 -17z m-187 -84
l46 -81 -52 7 c-55 7 -51 4 -124 101 l-32 43 32 4 c85 10 81 13 130 -74z
m5116 -64 l139 -119 12 -129 c7 -70 10 -130 7 -133 -6 -6 -157 106 -250 186
-63 54 -64 56 -71 114 -3 32 -6 94 -6 138 0 66 2 78 15 71 8 -5 77 -62 154
-128z m-5369 115 c0 -5 15 -10 33 -10 28 0 39 -7 65 -44 18 -24 32 -47 32 -50
0 -3 -40 -6 -88 -6 l-88 0 -23 40 c-12 22 -29 40 -37 40 -18 0 -18 -2 6 -44
l21 -34 -28 -5 c-103 -20 -98 -20 -127 23 -14 22 -26 44 -26 49 0 16 -31 36
-38 24 -4 -6 -16 -13 -27 -16 -17 -4 -16 -5 5 -6 18 -1 33 -13 53 -45 15 -24
27 -45 27 -48 0 -3 -16 -8 -35 -11 -33 -5 -40 -2 -84 44 -32 33 -42 49 -32 50
9 1 -11 5 -43 10 -33 5 -62 5 -65 1 -4 -5 -67 -17 -141 -26 -74 -10 -166 -24
-205 -32 l-70 -15 -27 31 c-15 16 -32 30 -38 30 -15 0 -12 -26 5 -40 22 -18
18 -29 -12 -36 -78 -17 -257 -70 -321 -95 -60 -23 -74 -25 -79 -13 -8 21 -25
17 -19 -4 5 -15 -8 -25 -66 -52 -178 -83 -367 -240 -461 -382 -37 -57 -89
-160 -102 -205 -12 -44 12 -23 30 25 66 180 229 366 417 479 88 53 78 58 154
-84 38 -70 69 -131 69 -136 0 -8 -108 -57 -125 -57 -4 0 -33 49 -64 110 -31
60 -62 112 -68 116 -13 8 -15 14 56 -126 36 -71 54 -116 47 -118 -7 -2 -37
-21 -69 -42 l-56 -38 -31 78 c-32 80 -71 138 -92 139 -18 1 -17 -4 16 -49 16
-22 41 -74 56 -115 l27 -74 -53 -59 -53 -60 -43 74 c-45 76 -57 89 -73 79 -5
-3 8 -32 29 -64 65 -101 67 -112 39 -179 -14 -31 -29 -72 -33 -90 l-7 -33 -25
33 c-38 50 -62 102 -69 147 -7 46 -24 56 -24 14 1 -37 30 -101 79 -168 44 -62
44 -79 -1 -121 l-30 -29 -38 44 c-22 25 -56 74 -77 109 -20 36 -39 60 -41 54
-5 -17 33 -82 87 -150 28 -34 51 -64 51 -67 0 -4 -62 -95 -78 -115 -5 -7 -51
46 -123 144 -33 44 -59 73 -59 65 0 -13 77 -121 143 -202 l27 -34 -17 -44
c-11 -30 -17 -78 -18 -151 -1 -104 -2 -107 -33 -142 -17 -20 -35 -48 -38 -62
-11 -43 2 -113 29 -152 15 -22 27 -59 31 -91 13 -100 79 -193 159 -222 l34
-12 -14 -49 c-18 -61 -11 -107 23 -148 14 -16 30 -45 35 -65 18 -65 87 -125
144 -125 14 0 25 -6 25 -13 0 -26 61 -98 106 -127 25 -15 67 -34 95 -40 l49
-12 0 -48 c0 -26 7 -67 15 -91 l15 -44 -30 34 c-20 23 -34 54 -41 93 -14 70
-35 73 -32 5 2 -82 75 -185 160 -227 15 -8 43 -25 61 -38 110 -79 247 -110
355 -78 55 16 57 16 134 -10 102 -35 237 -43 346 -20 43 8 89 22 104 29 24 13
30 12 72 -14 66 -40 158 -68 260 -78 115 -12 206 0 292 40 l66 30 58 -16 c97
-29 225 -4 320 61 21 14 59 33 86 43 45 17 53 18 100 4 36 -11 83 -14 163 -11
99 3 119 7 186 36 208 92 343 173 443 270 l49 47 -15 -37 c-21 -50 -92 -171
-141 -240 -38 -52 -46 -58 -113 -79 -55 -17 -73 -27 -73 -40 0 -10 5 -21 11
-25 20 -12 -152 -95 -300 -145 -202 -67 -318 -86 -423 -71 -44 6 -84 9 -89 6
-18 -11 -8 -33 19 -42 47 -16 -90 -27 -348 -27 l-235 0 -260 48 c-143 26 -334
61 -425 78 -368 68 -692 164 -888 263 -52 26 -193 167 -290 289 -140 177 -352
525 -352 580 0 15 -5 26 -12 25 -13 -3 -85 151 -119 255 -21 64 -21 79 -16
295 4 169 12 273 32 407 32 221 29 267 -8 120 -31 -126 -67 -415 -68 -555 l-1
-95 -29 90 c-33 103 -35 149 -14 290 69 459 340 874 738 1133 67 43 291 147
452 210 121 47 180 53 930 81 116 4 227 9 248 9 20 1 37 -2 37 -8z m-442 -74
c33 -18 88 -74 79 -82 -3 -3 -45 -19 -93 -35 -97 -33 -87 -35 -135 39 -18 28
-39 42 -39 27 0 -9 32 -58 52 -81 19 -21 19 -21 -59 -58 -49 -24 -85 -35 -99
-32 -19 5 -153 142 -162 165 -1 5 56 18 128 31 255 44 289 46 328 26z m1202
-119 c149 -104 271 -207 401 -336 113 -114 279 -307 279 -326 0 -4 -39 30 -86
75 -145 137 -373 298 -541 384 -47 23 -54 31 -107 136 -56 110 -68 148 -43
134 6 -4 50 -34 97 -67z m-1660 -6 c0 -10 18 -46 40 -80 22 -34 40 -66 40 -70
0 -5 -21 -21 -47 -36 l-48 -27 -38 44 c-47 53 -139 189 -133 195 2 3 35 13 73
23 l68 18 23 -25 c12 -13 22 -32 22 -42z m889 -17 c24 -35 42 -67 39 -69 -2
-3 -18 -7 -34 -11 -26 -5 -38 2 -97 57 -38 34 -65 65 -60 70 4 4 28 9 53 12
25 2 47 4 50 5 3 1 25 -28 49 -64z m156 60 c9 -4 24 -23 35 -43 l19 -37 -64
-16 -64 -15 -24 26 c-13 14 -34 41 -46 59 l-22 32 75 0 c41 0 82 -3 91 -6z
m-212 -175 c-2 -12 5 -16 29 -16 18 0 44 -3 58 -7 l25 -7 -22 17 c-30 21 -29
30 3 38 22 6 34 1 63 -27 36 -35 128 -97 143 -97 22 0 2 29 -40 57 -27 18 -60
46 -76 62 l-28 29 59 10 c54 10 59 9 73 -10 48 -65 106 -118 151 -138 50 -21
96 -24 92 -5 -2 11 -8 15 -71 41 -40 16 -122 94 -122 115 0 5 30 9 67 9 l66 0
73 -70 c39 -38 77 -70 82 -70 30 0 19 27 -29 77 -50 51 -52 54 -25 47 16 -4
37 -15 47 -25 11 -11 26 -19 34 -19 7 0 35 -33 61 -72 26 -40 67 -99 91 -130
24 -32 41 -58 38 -58 -4 0 -37 9 -73 20 -86 25 -269 51 -341 49 -46 -2 -68 4
-121 31 -135 68 -230 99 -427 136 -16 3 -35 27 -62 76 -22 40 -38 74 -36 76 2
3 19 8 37 12 31 6 38 2 109 -64 46 -43 75 -77 72 -87z m420 133 c18 -16 18
-17 -5 -23 -12 -4 -41 -7 -64 -8 -34 -1 -43 3 -52 24 -7 14 -12 28 -12 32 0
12 116 -10 133 -25z m-1443 -24 c13 -23 52 -79 86 -124 l63 -82 -69 -46 -69
-45 -47 77 c-81 133 -94 152 -104 152 -6 0 -10 -3 -10 -6 0 -8 97 -180 122
-216 18 -26 18 -27 -4 -42 -16 -12 -25 -13 -35 -4 -17 13 -161 210 -191 259
l-22 37 72 26 c40 14 91 32 113 40 61 22 69 19 95 -26z m5929 -50 l81 -76 2
-69 2 -68 3 63 4 62 108 -93 c59 -52 131 -111 159 -133 42 -30 52 -44 53 -69
1 -23 3 -25 6 -7 2 12 6 22 8 22 3 0 42 -24 87 -54 46 -30 113 -69 149 -87 73
-35 79 -46 79 -145 0 -40 -2 -43 -69 -87 l-68 -45 -102 54 c-160 85 -330 205
-514 363 l-107 92 0 72 c0 155 12 297 25 289 7 -4 49 -42 94 -84z m-5129 3
l36 -68 -61 -10 c-121 -21 -311 -65 -423 -99 -108 -33 -116 -34 -133 -18 -29
26 -23 39 31 64 l50 24 30 -29 c38 -36 49 -27 15 13 -21 25 -23 31 -9 36 8 3
33 -4 54 -16 47 -28 66 -15 27 18 l-28 24 38 16 c21 8 60 24 86 35 l48 19 44
-47 c24 -27 47 -45 51 -40 4 4 -10 25 -31 47 -21 22 -36 42 -33 46 7 6 148 53
163 53 6 1 26 -30 45 -68z m-481 -49 c3 -1 -1 -8 -7 -14 -13 -13 -24 -2 -58
57 l-17 30 39 -35 c21 -19 41 -36 43 -38z m6391 -13 c135 -114 271 -207 398
-271 23 -12 42 -24 41 -27 0 -4 -70 -55 -156 -115 l-156 -109 -81 39 c-45 21
-83 40 -85 41 -3 2 -29 213 -26 213 1 0 58 -29 128 -65 70 -36 135 -65 145
-65 10 0 23 -5 30 -12 8 -8 12 -9 12 -1 0 6 -46 35 -102 63 -57 29 -128 68
-159 87 -64 39 -62 34 -75 208 -8 103 -18 101 86 14z m-6900 -102 c50 -70 90
-130 90 -132 0 -1 -30 -8 -67 -15 -53 -9 -69 -9 -79 2 -16 17 -148 258 -143
262 2 2 22 13 44 24 37 20 41 20 53 4 7 -9 53 -75 102 -145z m6680 -9 c52 -40
105 -80 118 -88 19 -13 24 -30 33 -118 7 -56 10 -105 7 -108 -11 -10 -287 159
-304 187 -8 13 -33 197 -34 243 l0 29 43 -37 c23 -19 85 -68 137 -108z m-819
5 l126 -128 12 -134 c7 -73 9 -136 6 -139 -6 -6 -138 94 -232 176 l-63 54 0
67 c0 91 12 231 19 231 4 0 63 -57 132 -127z m-4943 35 c147 8 233 2 322 -21
103 -27 270 -99 283 -122 4 -8 16 -15 25 -15 10 0 58 -26 107 -58 217 -141
398 -320 474 -469 25 -49 26 -64 7 -57 -24 9 -29 -17 -7 -40 26 -28 28 -51 4
-41 -45 18 -54 18 -60 -4 -3 -14 -13 -21 -29 -21 -13 0 -24 4 -24 10 0 5 -12
17 -26 27 -26 16 -27 16 -43 -4 l-17 -20 -129 32 c-72 18 -202 52 -290 76
l-160 43 -375 -3 c-387 -2 -593 8 -715 36 -203 46 -247 115 -169 263 42 81
148 190 167 171 16 -16 43 -15 29 2 -16 19 -4 31 67 66 45 23 67 29 74 22 16
-16 28 -13 25 6 -2 14 17 24 92 49 118 40 310 85 330 77 8 -4 25 -6 38 -5z
m1285 -88 c321 -195 610 -474 726 -698 28 -55 51 -104 51 -108 0 -4 -44 35
-97 87 -54 52 -165 155 -248 229 -210 187 -287 263 -274 271 16 10 1 29 -22
29 -11 0 -45 24 -76 53 -63 59 -179 197 -166 197 5 0 53 -27 106 -60z m-1825
19 c7 -12 12 -22 10 -24 -2 -1 -35 -19 -75 -38 -62 -32 -73 -34 -83 -21 -15
17 -14 19 58 66 67 43 73 45 90 17z m5317 -204 c3 -33 7 -85 8 -115 2 -30 4
-9 5 48 l2 103 88 -73 c48 -41 116 -96 152 -123 36 -27 67 -52 70 -55 3 -3 14
-10 25 -16 11 -7 65 -40 120 -74 115 -73 299 -163 323 -158 9 2 -46 37 -123
77 -77 41 -186 103 -242 138 l-101 63 -6 108 c-4 59 -8 122 -11 140 -2 17 -1
32 2 32 3 0 35 -27 71 -61 107 -98 246 -207 366 -286 61 -40 117 -78 123 -83
7 -6 15 -10 18 -10 15 1 105 -52 100 -59 -13 -22 -598 -382 -850 -524 -106
-59 -617 -297 -638 -297 -23 1 -190 105 -193 120 -1 8 -12 40 -24 70 -28 70
-60 173 -56 178 2 2 35 -17 72 -41 78 -50 240 -133 326 -167 91 -35 90 -17 -1
21 -70 29 -86 39 -97 66 -25 57 -78 252 -71 259 3 4 28 -7 54 -23 86 -54 177
-101 253 -131 130 -52 129 -45 -4 23 -71 37 -173 93 -225 124 l-96 58 -27 129
c-15 71 -27 137 -28 146 0 13 25 1 100 -47 55 -36 164 -102 242 -147 79 -44
145 -83 147 -84 2 -2 7 -21 11 -41 l8 -38 1 33 c0 17 3 32 6 32 3 0 24 -9 46
-21 22 -11 46 -18 52 -16 7 2 -16 18 -50 36 -35 17 -63 35 -63 40 0 5 -5 55
-10 111 -6 56 -9 105 -6 107 9 9 205 -122 207 -137 0 -10 2 -11 6 -2 3 8 23 2
66 -22 76 -42 235 -108 249 -104 6 2 -36 26 -93 52 -116 54 -222 112 -351 193
-100 62 -95 51 -101 226 -2 67 0 106 6 104 5 -1 43 -27 83 -57 47 -35 73 -62
74 -75 0 -14 3 -16 9 -7 6 10 27 0 87 -41 162 -112 425 -267 453 -267 24 0 9
21 -31 41 -59 30 -380 223 -450 271 -32 21 -58 43 -58 48 0 6 -7 10 -15 10 -9
0 -49 25 -90 56 l-75 56 0 52 c0 28 3 88 6 133 l7 82 68 -62 c67 -61 68 -62
74 -122z m-3755 63 l175 -31 165 -160 c151 -146 159 -156 100 -117 -96 61
-239 128 -290 135 l-45 7 35 -31 c19 -17 77 -54 128 -81 123 -68 273 -182 361
-276 94 -100 162 -205 260 -397 45 -87 81 -150 81 -141 0 29 10 10 75 -133 49
-108 68 -139 84 -141 13 -2 21 2 21 11 0 19 -144 356 -200 467 -48 97 -140
242 -178 282 -14 15 -23 30 -20 33 7 8 317 -311 365 -375 41 -56 67 -140 93
-300 18 -111 24 -366 11 -480 -14 -115 -59 -307 -86 -365 -24 -49 -152 -178
-245 -246 -100 -74 -113 -80 -63 -30 48 47 66 77 83 141 7 25 21 57 31 71 10
15 19 32 19 37 0 6 22 32 50 58 55 52 90 114 90 161 0 17 7 36 15 43 20 17 55
114 55 155 0 46 -15 82 -38 89 -23 8 -82 99 -82 127 0 60 -60 104 -124 92 -20
-4 -26 -1 -26 13 0 30 -36 82 -69 98 -16 9 -48 18 -71 22 -38 6 -47 14 -94 78
-29 39 -74 115 -100 168 -46 91 -102 171 -238 337 -53 64 -58 74 -58 118 0
124 -162 328 -405 510 -55 41 -104 79 -109 84 -12 11 28 5 244 -33z m-1825
-60 c-91 -98 -138 -227 -105 -288 9 -17 5 -20 -27 -29 -104 -29 -273 -173
-328 -281 -36 -71 -55 -153 -55 -238 0 -78 12 -115 34 -106 10 4 15 31 18 102
3 86 7 105 35 162 45 89 162 227 231 272 128 82 116 77 140 57 12 -9 28 -19
35 -22 9 -3 7 -9 -5 -24 -10 -10 -28 -55 -42 -99 -13 -43 -36 -109 -50 -146
-22 -58 -26 -90 -32 -227 l-7 -159 -41 -6 c-22 -4 -66 -18 -96 -32 l-55 -25
-57 55 c-46 45 -69 59 -119 73 -58 17 -63 21 -82 63 -11 25 -22 75 -25 111 -5
74 4 107 71 252 l41 87 28 -27 c34 -33 48 -24 19 13 -11 15 -21 33 -21 40 0
39 236 189 328 209 32 7 52 29 38 42 -12 12 -139 -36 -220 -82 -87 -49 -90
-51 -80 -32 4 6 -18 -12 -48 -41 l-55 -53 -32 61 -32 60 29 38 c17 20 42 48
56 61 26 24 26 24 41 5 8 -10 15 -22 15 -26 0 -8 71 -58 82 -58 5 0 -10 18
-31 39 -41 41 -59 77 -44 91 4 5 35 25 67 44 l59 35 34 -29 c48 -42 71 -38 25
4 l-37 35 45 20 c60 26 100 36 100 23 0 -5 7 -13 16 -16 13 -5 15 -2 11 13 -5
20 15 31 62 31 24 0 24 -1 5 -14 -10 -8 -16 -18 -12 -22 4 -4 22 4 40 18 17
14 44 25 59 25 28 0 27 -1 -26 -59z m5319 -16 l84 -73 7 -117 c3 -64 8 -127
11 -139 2 -13 0 -23 -5 -23 -11 0 -132 87 -147 106 -17 21 -57 327 -42 322 5
-2 46 -36 92 -76z m1817 -71 c-63 -79 -264 -244 -382 -313 -41 -24 -89 -29
-89 -9 0 4 75 59 168 123 92 65 203 146 247 181 44 35 82 63 84 61 2 -2 -11
-21 -28 -43z m-326 -86 c28 -8 57 -18 64 -21 10 -3 -5 -18 -44 -44 -33 -22
-61 -37 -64 -34 -7 7 -18 114 -12 114 4 0 29 -7 56 -15z m-7393 -280 c-17 -26
-33 -52 -35 -58 -2 -6 -9 -7 -16 -3 -9 6 -4 17 20 42 39 41 34 51 -16 29 -21
-8 -40 -14 -42 -12 -5 5 27 108 45 142 l15 30 30 -62 30 -61 -31 -47z m4884
-3 c107 -88 112 -94 119 -138 3 -25 20 -93 36 -151 16 -58 28 -107 27 -109 -2
-2 -62 41 -133 96 l-130 98 -28 139 c-15 76 -30 149 -34 163 -6 24 -5 24 13 9
10 -8 69 -57 130 -107z m-4189 38 c110 -29 243 -40 468 -40 l206 0 92 -61
c122 -82 188 -134 267 -209 l65 -62 -66 36 c-254 136 -600 279 -622 257 -7 -7
-4 -13 9 -17 413 -144 684 -311 940 -578 109 -113 154 -147 154 -116 0 23 -34
74 -85 130 -29 32 -61 73 -71 92 -60 118 -317 351 -536 484 l-63 39 170 3
c167 2 172 2 320 -35 143 -35 152 -39 198 -82 108 -101 156 -226 164 -431 l6
-135 -67 -67 c-42 -44 -74 -68 -88 -68 -13 0 -47 -12 -77 -25 -30 -14 -57 -22
-60 -17 -3 5 -21 32 -40 60 -18 29 -37 52 -43 52 -10 0 -10 0 40 -79 45 -71
31 -84 -35 -31 -57 44 -110 70 -146 70 -21 0 -26 7 -36 43 -17 71 -44 122 -81
154 -60 51 -75 56 -165 49 l-82 -7 -12 48 c-17 67 -55 118 -108 144 -38 18
-54 21 -106 14 -34 -4 -112 -7 -173 -5 -209 4 -366 -66 -430 -191 -22 -44 -27
-48 -44 -39 -33 17 -72 108 -78 177 -4 49 1 79 21 145 15 46 37 96 49 111 l23
28 75 -34 c252 -116 302 -137 367 -151 93 -21 94 -21 53 13 l-34 29 169 -29
c278 -47 416 -98 561 -208 44 -32 104 -84 134 -115 30 -31 58 -56 62 -56 29 0
-33 92 -118 175 -156 152 -357 221 -800 274 -129 15 -175 25 -237 51 -91 38
-153 93 -163 144 -6 36 -17 45 -29 26 -14 -22 -25 -8 -25 31 0 35 3 40 18 34
9 -4 49 -15 89 -25z m6553 -20 c8 -5 12 -11 10 -13 -37 -31 -610 -335 -585
-310 6 5 79 51 163 102 83 50 200 123 260 161 108 70 125 77 152 60z m-1776
-168 l120 -88 38 -129 c20 -72 40 -141 44 -154 7 -23 4 -23 -72 19 -43 24
-113 64 -154 89 l-75 47 -31 139 c-17 77 -34 155 -37 173 l-7 33 28 -20 c15
-12 81 -61 146 -109z m-5536 36 l-16 -33 -7 37 c-9 46 1 66 23 44 14 -14 14
-19 0 -48z m710 12 c25 -34 19 -38 -19 -12 -14 9 -24 23 -22 30 7 19 17 15 41
-18z m-741 -98 c-2 -12 0 -25 4 -28 5 -3 9 -31 9 -62 0 -33 10 -86 24 -124
l23 -68 -50 0 c-54 0 -155 -23 -199 -46 l-28 -15 0 55 c0 50 28 163 48 194 7
10 17 7 43 -15 l33 -28 -27 36 c-15 20 -27 39 -27 43 0 4 16 32 36 62 36 54
37 54 57 37 19 -18 20 -18 6 4 -11 19 -11 25 6 43 l20 22 13 -43 c7 -24 11
-54 9 -67z m2543 -56 c60 -140 76 -198 84 -296 4 -47 14 -95 21 -107 19 -29 2
-35 -45 -15 -23 9 -54 13 -91 9 l-56 -5 14 47 c17 57 19 179 2 246 -17 70 -67
170 -111 220 l-37 42 88 -20 88 -20 43 -101z m2669 66 c53 -43 130 -104 171
-134 l75 -55 34 -104 c18 -57 40 -117 48 -132 8 -16 12 -31 9 -34 -6 -6 -65
29 -234 141 l-123 81 -29 95 c-34 111 -61 220 -53 220 3 0 49 -35 102 -78z
m-1594 -37 c19 -34 23 -45 11 -36 -10 8 -29 38 -43 65 -30 62 -7 41 32 -29z
m-855 29 c72 -57 126 -130 192 -259 34 -66 73 -131 88 -145 14 -14 45 -53 68
-86 l41 -62 -44 -14 c-43 -15 -45 -14 -67 9 -64 68 -188 114 -274 100 -27 -5
-34 -3 -34 11 0 9 -9 82 -19 162 -17 127 -35 198 -75 292 -7 16 4 21 64 26 8
1 35 -14 60 -34z m1800 -128 c58 -44 110 -84 115 -89 12 -10 266 -186 281
-195 6 -4 26 -52 44 -107 18 -55 46 -133 61 -173 16 -40 29 -75 29 -77 0 -5
-93 49 -224 131 -97 61 -102 65 -118 116 -16 46 -16 24 -1 -26 3 -13 -27 4
-98 53 -57 39 -114 79 -126 89 -17 14 -28 48 -52 172 -17 85 -34 166 -38 179
-8 30 -8 30 127 -73z m484 -5 l128 -98 70 -189 c38 -104 73 -198 78 -209 15
-33 50 -129 47 -131 -1 -1 -45 -23 -97 -49 -163 -82 -347 -184 -579 -322 -122
-73 -228 -130 -234 -126 -5 3 -7 2 -4 -3 3 -6 -37 -35 -89 -67 l-94 -56 -24
47 c-13 26 -27 58 -31 70 -6 21 -5 23 13 13 25 -14 32 -14 32 -1 0 5 -17 18
-37 29 -35 17 -42 29 -81 131 -24 62 -41 114 -39 116 2 2 27 -17 57 -42 56
-47 150 -101 150 -85 0 5 -24 24 -52 42 -29 17 -83 61 -120 97 -61 58 -69 71
-89 138 -12 41 -24 72 -26 70 -2 -2 3 -28 11 -57 9 -29 14 -54 12 -56 -9 -10
-25 30 -41 102 -20 92 -46 172 -87 265 l-28 65 40 -44 c24 -26 40 -54 41 -70
0 -19 2 -22 7 -9 6 13 35 -11 138 -111 73 -71 139 -131 147 -134 8 -3 43 -60
77 -126 35 -67 67 -121 72 -121 12 0 14 -4 -46 103 -26 48 -47 90 -45 92 2 1
44 -24 93 -56 49 -32 96 -59 105 -59 8 0 -36 34 -98 76 -61 42 -119 87 -128
100 -18 28 -103 238 -103 255 0 7 28 -15 63 -47 99 -95 244 -213 342 -277 50
-32 98 -72 108 -88 11 -16 24 -29 29 -29 6 0 2 12 -8 28 -54 81 -87 145 -119
227 -38 96 -98 296 -91 302 2 2 52 -31 112 -73 60 -41 114 -79 121 -82 6 -4
24 -41 39 -82 28 -79 102 -231 128 -265 27 -35 17 -8 -21 57 -34 58 -113 239
-113 259 0 5 28 -8 63 -29 34 -21 108 -64 165 -96 56 -31 102 -61 102 -65 0
-4 6 -15 13 -26 13 -17 14 -17 20 4 3 11 2 19 -3 16 -15 -9 -145 320 -138 352
2 9 25 -1 73 -30 82 -51 234 -135 220 -120 -5 5 -79 51 -162 103 -84 51 -153
95 -153 98 0 4 -28 136 -75 350 -3 12 -2 22 2 22 5 -1 66 -45 137 -99z m-3674
-133 c26 -41 34 -68 39 -122 8 -77 23 -96 76 -96 26 0 37 -8 64 -45 42 -58 51
-59 11 -1 -16 25 -30 49 -30 54 0 13 67 72 82 72 6 0 29 -5 51 -12 35 -11 43
-19 65 -68 21 -44 27 -77 32 -159 6 -114 14 -130 63 -117 20 5 29 16 37 46 6
22 17 40 24 40 16 0 81 -42 121 -80 53 -49 71 -54 112 -30 19 11 36 20 38 18
1 -2 57 -84 125 -183 151 -222 252 -352 394 -507 97 -107 256 -248 279 -248 5
0 -59 70 -142 156 -84 86 -188 200 -232 253 -175 208 -413 536 -403 553 4 6
24 18 46 28 l40 18 42 -42 c23 -22 65 -70 93 -106 l51 -65 -20 -26 c-22 -29
-28 -93 -11 -110 19 -19 43 -2 43 28 0 35 16 62 28 48 5 -6 47 -66 92 -135
107 -161 203 -290 269 -362 52 -57 177 -158 195 -158 6 0 -35 46 -90 103 -55
56 -125 134 -156 172 -89 113 -288 409 -280 417 4 4 29 12 55 17 l47 8 78
-101 c43 -55 102 -141 132 -191 68 -115 79 -127 105 -121 16 4 40 -10 91 -52
77 -65 185 -135 193 -126 3 4 -2 11 -13 18 -42 25 -194 147 -228 183 -20 21
-59 74 -85 118 -37 62 -54 81 -75 85 -19 4 -46 30 -92 90 -55 72 -63 85 -47
88 29 5 75 -23 91 -55 8 -15 19 -31 25 -35 17 -13 47 -9 66 8 16 14 22 11 81
-48 82 -82 226 -210 307 -273 42 -33 58 -51 48 -53 -9 -2 -25 2 -36 7 -25 14
-61 14 -61 1 0 -17 60 -41 116 -47 46 -5 51 -8 38 -20 -8 -8 -14 -21 -14 -28
0 -21 -63 -65 -116 -81 -26 -8 -73 -14 -104 -14 -59 0 -89 -17 -74 -41 9 -15
180 -7 212 10 42 22 46 5 9 -35 -32 -34 -36 -36 -37 -18 0 19 -3 18 -36 -12
-19 -19 -56 -46 -82 -61 -41 -24 -60 -28 -148 -31 -74 -3 -117 0 -158 12 -54
16 -60 22 -57 59 2 11 -5 17 -19 17 -14 0 -78 58 -194 178 -277 285 -302 313
-282 324 21 12 21 69 1 109 -20 37 -87 87 -131 95 -18 3 -38 12 -45 20 -6 8
-18 14 -25 14 -8 0 -14 3 -14 8 -1 4 -12 21 -27 37 l-25 30 22 -38 c12 -21 21
-39 19 -41 -14 -11 -173 -37 -178 -29 -3 5 -28 44 -54 86 -27 43 -51 77 -53
77 -3 0 -3 -3 -1 -7 77 -125 97 -158 97 -165 0 -4 -9 -8 -21 -8 -11 0 -29 -5
-40 -10 -15 -9 -17 -15 -9 -30 7 -12 7 -21 0 -25 -8 -5 -70 83 -188 270 -32
51 -30 65 7 45 18 -9 21 -7 27 16 9 35 -28 69 -83 79 -33 5 -42 13 -66 57 -34
61 -49 56 -16 -6 13 -25 21 -47 18 -50 -3 -3 -19 -8 -35 -11 -44 -9 -86 24
-145 112 -113 170 -189 265 -189 237 0 -3 34 -52 75 -109 41 -57 90 -128 109
-158 l35 -55 -67 -5 c-80 -6 -78 -7 -173 152 -34 58 -69 117 -77 129 -7 13
-16 22 -18 19 -7 -7 34 -87 107 -210 56 -94 59 -102 43 -114 -10 -7 -21 -12
-26 -11 -4 2 -57 80 -117 173 l-111 170 28 23 c77 63 180 66 239 7 41 -41 59
-48 85 -34 15 8 24 7 37 -5 10 -9 23 -16 29 -16 17 0 15 46 -3 80 -15 30 -15
30 13 30 24 0 35 -9 62 -52z m3995 -94 c90 -59 321 -196 368 -218 9 -4 9 -8 1
-11 -147 -71 -330 -155 -339 -155 -7 0 -20 21 -30 48 -9 26 -30 79 -45 117
-36 89 -120 314 -120 322 0 3 12 -3 28 -13 15 -10 77 -50 137 -90z m-4791 24
c19 -38 19 -38 2 -38 -13 0 -26 28 -26 58 0 20 8 14 24 -20z m410 -153 c53
-82 96 -155 96 -161 0 -6 -6 -17 -14 -23 -12 -10 -17 -8 -26 9 -6 12 -35 32
-63 46 -45 20 -60 35 -113 116 -61 92 -62 93 -47 123 9 17 22 38 31 48 21 23
21 23 136 -158z m-224 96 c-10 -29 -21 -48 -25 -42 -6 10 33 106 40 99 2 -2
-5 -27 -15 -57z m-643 -3 c18 -9 34 -33 53 -83 14 -38 35 -86 45 -105 10 -19
21 -46 25 -60 6 -22 2 -26 -29 -37 -20 -7 -39 -13 -43 -13 -3 0 -32 51 -64
113 -64 126 -62 123 -70 114 -3 -3 22 -60 57 -126 58 -114 61 -122 45 -139 -9
-10 -16 -24 -16 -30 0 -30 -20 -5 -67 81 -27 50 -62 124 -78 162 -30 74 -41
92 -50 83 -7 -7 65 -172 117 -267 l40 -74 -23 -18 c-13 -10 -27 -19 -31 -19
-14 0 -188 291 -188 315 0 34 72 94 140 116 31 10 104 3 137 -13z m-292 -18
c-10 -11 -20 -18 -23 -15 -7 6 18 35 31 35 5 0 2 -9 -8 -20z m3945 -61 c48
-94 51 -133 6 -75 -16 21 -33 57 -38 80 -5 22 -11 49 -14 59 -12 40 8 12 46
-64z m-4276 -192 c4 -40 15 -115 26 -167 11 -52 18 -96 15 -98 -2 -2 -19 45
-38 105 -38 118 -63 239 -72 348 l-6 70 34 -93 c20 -55 37 -124 41 -165z m713
224 c30 -25 43 -62 43 -119 0 -57 -9 -49 -49 47 -41 97 -40 110 6 72z m263 2
c-8 -3 -32 -14 -52 -25 -22 -10 -38 -14 -38 -8 0 13 57 39 85 39 14 0 16 -2 5
-6z m-690 -25 c-1 -7 -7 -24 -15 -38 -14 -24 -14 -24 -15 -3 0 28 10 53 21 53
5 0 9 -6 9 -12z m1097 -124 c-7 -7 -102 -23 -107 -17 -7 7 -10 65 -4 86 3 9
12 17 20 17 8 0 14 10 14 23 0 16 11 6 41 -41 22 -35 39 -66 36 -68z m-245 70
c11 -11 27 -34 34 -51 14 -32 51 -52 73 -38 6 3 11 2 11 -3 0 -5 -23 -21 -50
-35 l-50 -26 -35 69 c-19 39 -37 70 -40 70 -3 0 11 -33 31 -73 l37 -74 -32
-43 c-17 -24 -31 -54 -31 -67 0 -35 -13 -22 -66 67 -48 81 -68 107 -38 48 9
-18 34 -63 56 -100 21 -36 49 -84 61 -106 26 -46 64 -100 165 -228 68 -87 72
-96 66 -129 -6 -36 -18 -45 -27 -22 -9 24 -128 179 -134 173 -3 -3 17 -36 44
-73 27 -37 102 -149 167 -247 145 -221 206 -304 287 -390 69 -75 67 -76 -49
-34 -39 15 -51 23 -43 31 16 16 13 53 -4 67 -13 11 -22 10 -51 -3 -43 -21 -52
-17 -130 65 -75 78 -151 191 -247 368 -57 106 -77 135 -92 134 -23 -2 -103 86
-230 256 -128 170 -133 183 -69 196 29 5 32 2 96 -98 37 -56 91 -136 121 -176
73 -98 239 -285 279 -313 43 -31 28 -9 -67 96 -44 50 -103 117 -131 150 -89
107 -240 323 -231 332 8 7 64 -24 87 -49 14 -15 20 -35 20 -65 0 -41 17 -63
49 -63 20 0 41 33 41 64 0 59 -58 124 -135 150 -46 16 -52 27 -29 51 10 9 25
31 34 49 8 17 21 30 29 28 7 -1 10 2 7 6 -7 11 21 38 54 51 39 16 137 7 162
-15z m2269 -21 c30 -16 61 -40 69 -55 13 -24 13 -30 -8 -66 -36 -65 -26 -112
25 -112 23 0 52 22 72 56 10 17 15 14 58 -36 26 -30 80 -89 121 -131 l73 -76
-23 -16 c-22 -14 -22 -16 -6 -33 12 -12 33 -17 70 -18 88 -2 192 -74 147 -102
-6 -3 -23 3 -37 15 -48 38 -69 45 -97 33 -27 -12 -33 -40 -13 -60 6 -6 9 -15
5 -18 -14 -14 -187 150 -187 177 0 51 -56 108 -123 124 -37 10 -96 77 -290
333 -19 25 85 14 144 -15z m-113 -75 c38 -51 95 -122 125 -158 l56 -65 -52
-10 c-29 -6 -62 -16 -73 -23 -20 -10 -26 -6 -69 44 -51 60 -135 180 -135 194
0 5 10 10 23 12 19 3 22 9 22 43 -1 36 8 54 26 55 4 0 38 -42 77 -92z m-2867
-85 c78 -130 88 -150 69 -138 -6 3 -7 -1 -4 -9 12 -31 -48 -18 -100 22 -59 44
-74 72 -22 41 19 -11 46 -19 59 -17 13 1 33 -4 43 -12 10 -8 -3 14 -29 50 -81
111 -130 198 -122 217 6 17 7 16 17 -2 6 -11 46 -79 89 -152z m2674 103 c30
-48 136 -209 165 -249 14 -20 14 -20 -5 -12 -11 4 -50 10 -87 13 -67 4 -68 4
-105 53 -50 66 -76 65 -28 -1 21 -28 36 -52 34 -54 -2 -1 -24 -10 -49 -19
l-45 -18 -28 33 c-72 84 -87 107 -76 114 7 4 9 22 6 45 -7 51 23 96 83 127 68
34 99 27 135 -32z m1235 -138 l0 -86 -29 11 c-28 10 -28 11 -34 111 -3 56 -9
110 -12 121 -4 12 11 1 34 -25 l41 -45 0 -87z m-3989 90 c17 -29 47 -72 67
-95 37 -46 36 -51 -6 -29 -36 19 -78 65 -91 99 -11 28 -15 77 -7 77 2 0 19
-24 37 -52z m3403 -1 c8 -13 8 -20 -2 -26 -22 -14 -10 -54 18 -61 14 -3 26
-14 29 -25 5 -30 21 -45 47 -45 22 0 74 -54 74 -77 0 -5 -13 -22 -29 -37 l-29
-28 -137 135 c-78 77 -135 140 -131 146 9 14 95 41 125 38 13 -1 29 -10 35
-20z m46 -9 c0 -6 -7 -5 -15 2 -8 7 -15 17 -15 22 0 6 7 5 15 -2 8 -7 15 -17
15 -22z m-2366 -12 c23 -10 38 -25 49 -54 9 -22 21 -43 27 -47 5 -3 10 -13 10
-22 0 -34 34 -86 65 -99 29 -12 122 -120 113 -130 -3 -2 -25 -7 -49 -10 -45
-6 -46 -5 -93 47 -97 108 -239 306 -230 320 8 14 71 11 108 -5z m-57 -113 c34
-48 88 -119 120 -157 95 -112 92 -100 27 -130 -31 -14 -58 -26 -59 -26 -10 0
-161 193 -213 274 -71 107 -71 101 3 136 34 16 42 17 50 6 6 -8 38 -54 72
-103z m491 81 c12 -8 22 -21 22 -28 0 -7 7 -19 16 -27 9 -7 31 -44 50 -81 19
-38 53 -98 75 -134 22 -37 38 -68 36 -71 -3 -2 -21 12 -41 31 -19 20 -33 28
-29 19 9 -27 -92 86 -179 201 -65 85 -75 102 -60 108 23 9 82 -1 110 -18z
m-117 -56 c23 -35 72 -99 107 -143 l65 -80 -34 -3 c-37 -4 -28 -14 -151 156
-64 90 -78 116 -67 123 26 16 36 9 80 -53z m308 19 c13 -23 64 -106 112 -184
49 -78 89 -151 89 -162 0 -48 46 -116 73 -105 8 3 49 -42 107 -118 117 -151
286 -323 405 -411 92 -68 135 -84 55 -20 -174 139 -579 594 -580 651 0 23 43
72 64 72 7 0 19 -13 28 -28 74 -124 294 -414 421 -554 79 -88 194 -194 202
-187 2 3 -43 57 -101 122 -57 64 -104 118 -104 120 0 2 20 1 45 -3 49 -7 89 9
70 29 -12 12 -121 30 -144 24 -12 -3 -47 31 -112 109 -98 116 -279 355 -279
368 0 22 85 27 156 9 32 -8 53 -22 72 -47 169 -219 344 -416 468 -526 57 -49
101 -93 98 -98 -3 -4 -14 -2 -24 4 -25 16 -41 0 -17 -17 16 -11 12 -16 -38
-55 -30 -23 -72 -48 -92 -56 -36 -12 -213 -20 -213 -9 0 3 7 17 16 30 19 30
12 32 -24 6 -82 -56 -135 -38 -258 92 -202 212 -440 509 -450 561 -2 14 -2 26
0 26 2 0 33 -39 68 -87 137 -187 360 -430 518 -563 36 -30 -25 38 -135 150
-216 222 -335 363 -450 535 -68 101 -172 285 -162 285 2 0 33 -37 70 -82 77
-98 154 -175 164 -165 4 4 -16 31 -44 60 -92 93 -163 190 -151 204 6 7 8 24 6
38 -5 22 -2 25 21 25 20 0 31 -10 50 -43z m-333 -118 c47 -71 85 -131 83 -132
-21 -14 -63 -26 -68 -19 -3 4 -31 39 -62 78 -67 82 -91 126 -82 151 6 17 33
53 39 53 2 0 42 -59 90 -131z m-497 48 c52 -84 170 -246 194 -266 24 -20 22
-27 -25 -72 -40 -38 -43 -39 -59 -22 -46 48 -167 218 -162 228 2 7 -5 28 -16
46 -12 19 -21 49 -21 67 0 33 24 92 38 92 4 0 27 -33 51 -73z m3180 -56 c1
-20 -1 -21 -14 -11 -11 9 -15 30 -14 74 l1 61 13 -50 c7 -27 14 -61 14 -74z
m-4285 -29 c31 -68 56 -134 57 -145 0 -12 3 -16 6 -9 3 7 36 -40 74 -104 115
-193 231 -352 352 -482 27 -29 47 -56 43 -59 -9 -9 -106 59 -197 139 -214 188
-327 407 -405 778 -10 45 11 9 70 -118z m661 3 c93 -127 143 -189 238 -294 48
-54 127 -179 127 -202 0 -6 -77 -29 -95 -29 -4 0 -5 7 -1 15 3 8 -4 21 -16 29
-20 14 -23 13 -44 -11 l-22 -26 -35 22 c-19 11 -55 45 -81 73 -26 29 -60 67
-75 84 -16 17 -48 67 -72 110 -38 71 -40 76 -16 55 52 -47 39 -11 -24 64 -57
70 -62 78 -50 98 12 18 11 23 -8 38 -17 14 -18 19 -7 28 11 9 23 -2 62 -56
113 -160 268 -342 281 -330 3 4 -16 32 -43 63 -81 93 -154 185 -204 256 l-48
68 16 35 c9 19 19 34 23 33 4 -2 46 -57 94 -123z m3162 94 c11 -11 6 -49 -6
-49 -13 0 -51 46 -44 53 10 11 38 8 50 -4z m372 -45 c24 -17 24 -38 4 -138
l-5 -29 -19 24 c-14 18 -19 41 -19 92 0 37 3 67 8 67 4 0 18 -7 31 -16z m-261
-88 c-3 -25 -5 -26 -22 -13 -16 12 -17 17 -6 36 15 29 33 14 28 -23z m362
-101 c0 -46 -4 -86 -9 -89 -5 -3 -21 10 -36 30 l-27 35 13 81 13 80 23 -26
c20 -24 23 -38 23 -111z m202 -17 c57 -150 57 -150 -16 -77 l-66 67 0 78 0 78
22 -21 c11 -12 39 -68 60 -125z m-1089 119 c44 -19 60 -42 59 -82 -2 -42 18
-59 61 -51 28 5 37 2 58 -20 13 -15 60 -56 104 -91 44 -36 83 -73 87 -82 9
-21 10 -85 2 -105 -11 -29 -59 -19 -101 22 -21 20 -123 118 -227 216 -171 163
-186 181 -170 193 23 17 86 17 127 0z m-3032 -29 c-5 -13 -12 -50 -16 -82 -5
-41 -10 -55 -16 -45 -14 22 -10 61 11 107 20 44 36 59 21 20z m159 -107 l55
-109 -33 -38 c-27 -31 -36 -36 -50 -28 -31 20 -54 74 -59 137 -5 59 10 147 25
147 4 0 32 -49 62 -109z m3359 95 c10 -11 8 -16 -8 -21 -24 -7 -28 -33 -7 -41
8 -3 24 0 36 6 27 14 34 8 26 -24 -9 -37 -36 -36 -83 3 l-43 35 27 28 c31 32
36 33 52 14z m280 -59 c10 -19 8 -34 -15 -97 -14 -41 -31 -79 -37 -85 -7 -7
-8 -4 -3 9 3 10 12 58 18 107 7 49 15 89 19 89 3 0 11 -10 18 -23z m-2399 -69
c54 -68 132 -148 144 -148 6 -1 29 -22 51 -47 36 -42 37 -46 15 -39 -14 5 -62
11 -108 13 l-83 5 -50 74 c-61 92 -73 119 -36 85 35 -32 34 -20 -4 35 l-30 44
23 9 c37 15 43 13 78 -31z m110 -3 c19 -12 45 -26 57 -30 13 -3 50 -44 84 -93
114 -160 275 -356 408 -496 46 -48 52 -57 31 -52 -42 12 -414 398 -625 650
-50 59 -50 59 -20 52 17 -4 46 -18 65 -31z m2372 -27 l29 -35 -15 -64 c-8 -35
-19 -77 -25 -92 l-11 -28 -31 36 c-25 28 -29 38 -19 50 15 18 3 38 -17 31 -12
-5 -13 -2 -8 11 5 10 17 44 29 76 12 31 25 56 30 54 6 -2 23 -19 38 -39z
m-2543 -89 c57 -102 58 -104 37 -116 -34 -20 -41 -16 -80 46 -41 66 -42 71
-21 71 23 0 19 50 -6 76 -12 12 -18 28 -14 34 10 17 19 6 84 -111z m2825 6
c37 -25 113 -174 94 -186 -60 -40 -411 -229 -423 -229 -3 0 13 28 36 61 47 70
112 204 128 267 7 23 15 42 18 42 4 0 19 -12 35 -27 42 -40 47 -18 5 25 l-37
38 10 59 c5 33 10 62 10 64 0 2 22 -18 48 -46 26 -27 60 -58 76 -68z m-3038
-37 c122 -217 189 -325 265 -425 82 -107 85 -119 46 -151 -11 -10 -26 0 -74
51 -146 153 -360 435 -355 468 2 10 -2 19 -9 19 -21 0 -49 32 -49 56 0 21 34
64 51 64 4 0 21 -12 38 -26 34 -28 44 -18 11 11 -11 10 -17 22 -14 26 14 24
37 0 90 -93z m16 93 c35 -13 111 -90 147 -148 l33 -53 -21 -26 c-12 -15 -21
-38 -21 -53 l0 -26 -20 25 c-20 25 -170 277 -170 286 0 7 27 5 52 -5z m2382
-83 c-14 -47 -21 -51 -26 -14 -3 30 -1 36 15 36 14 0 17 -5 11 -22z m-2567
-78 c26 -4 46 -26 133 -144 109 -150 162 -217 253 -318 31 -36 57 -68 57 -71
0 -8 -70 -27 -101 -27 -51 0 -214 188 -364 420 -61 94 -68 110 -66 149 3 62 9
67 35 29 14 -22 32 -35 53 -38z m2813 29 c0 -16 54 -79 68 -79 17 0 16 -3 -14
-63 -67 -131 -219 -308 -297 -345 -23 -11 -44 -19 -45 -17 -2 2 9 23 25 47 56
82 111 184 148 273 21 50 50 109 66 132 16 23 29 46 29 52 0 6 5 11 10 11 6 0
10 -5 10 -11z m-3481 -76 c17 -23 48 -52 67 -64 43 -26 38 -37 -8 -14 -58 30
-108 88 -108 127 0 14 3 11 49 -49z m1290 -41 c18 -13 27 -30 29 -55 4 -44 33
-70 66 -58 16 6 22 19 26 54 l5 45 155 -165 c85 -91 158 -173 162 -183 3 -9
20 -22 36 -29 34 -14 48 -51 32 -80 -11 -21 -88 -40 -99 -24 -3 6 -40 39 -82
74 -187 159 -350 322 -422 423 l-21 29 44 -6 c24 -3 55 -14 69 -25z m-74 -54
c82 -101 264 -286 363 -370 45 -39 81 -73 78 -75 -8 -9 -93 19 -192 64 -115
51 -125 61 -287 292 -88 125 -97 145 -74 154 37 15 55 5 112 -65z m-71 -74
c38 -57 88 -130 112 -162 23 -31 41 -58 39 -60 -1 -2 -20 4 -40 12 -21 9 -46
16 -56 16 -17 0 -115 107 -140 152 -7 13 -5 15 11 11 29 -8 36 22 11 53 -20
25 -29 84 -13 84 4 0 38 -48 76 -106z m-690 -4 c37 -54 93 -127 126 -161 58
-62 73 -98 23 -59 -20 16 -29 17 -46 8 -19 -10 -27 -4 -74 45 -80 87 -178 220
-165 225 6 2 22 12 34 22 13 11 26 19 29 20 4 0 37 -45 73 -100z m-89 -41 c38
-51 95 -120 127 -154 32 -34 58 -66 58 -69 0 -4 -33 -6 -72 -4 l-72 3 -92 111
c-87 107 -105 141 -96 187 3 12 13 17 42 17 36 0 41 -4 105 -91z m-43 -164
c10 -18 9 -18 -13 2 -13 12 -32 37 -42 55 l-19 33 31 -35 c18 -19 36 -44 43
-55z m2133 5 c3 -5 -1 -10 -10 -10 -9 0 -13 5 -10 10 3 6 8 10 10 10 2 0 7 -4
10 -10z m135 -36 l55 -12 -56 -1 c-78 -1 -119 8 -112 25 3 10 13 12 32 7 14
-4 51 -12 81 -19z m-1217 -75 c21 -17 36 -34 33 -36 -7 -8 -96 46 -96 57 0 19
26 10 63 -21z m692 -19 c33 -1 37 -2 22 -11 -21 -12 -94 -3 -104 13 -4 8 2 9
18 5 13 -4 42 -7 64 -7z"/>
<path d="M6093 5643 c9 -2 23 -2 30 0 6 3 -1 5 -18 5 -16 0 -22 -2 -12 -5z"/>
<path d="M8662 5575 c0 -16 2 -22 5 -12 2 9 2 23 0 30 -3 6 -5 -1 -5 -18z"/>
<path d="M8672 5520 c0 -14 2 -19 5 -12 2 6 2 18 0 25 -3 6 -5 1 -5 -13z"/>
<path d="M8682 5470 c0 -14 2 -19 5 -12 2 6 2 18 0 25 -3 6 -5 1 -5 -13z"/>
<path d="M8692 5420 c0 -14 2 -19 5 -12 2 6 2 18 0 25 -3 6 -5 1 -5 -13z"/>
<path d="M6031 4414 c0 -11 3 -14 6 -6 3 7 2 16 -1 19 -3 4 -6 -2 -5 -13z"/>
<path d="M4633 3705 c0 -22 2 -30 4 -17 2 12 2 30 0 40 -3 9 -5 -1 -4 -23z"/>
<path d="M4642 3630 c0 -19 2 -27 5 -17 2 9 2 25 0 35 -3 9 -5 1 -5 -18z"/>
<path d="M8393 4980 c0 -25 2 -35 4 -22 2 12 2 32 0 45 -2 12 -4 2 -4 -23z"/>
<path d="M7792 4670 c0 -19 2 -27 5 -17 2 9 2 25 0 35 -3 9 -5 1 -5 -18z"/>
<path d="M7801 4594 c0 -11 3 -14 6 -6 3 7 2 16 -1 19 -3 4 -6 -2 -5 -13z"/>
<path d="M2495 4774 c-21 -8 -102 -46 -180 -84 -77 -38 -182 -81 -234 -96
-122 -35 -253 -31 -343 9 -33 15 -60 22 -64 16 -9 -16 97 -58 179 -71 138 -21
309 19 522 122 161 78 243 149 120 104z"/>
<path d="M2805 4514 c-66 -9 -198 -16 -292 -17 -124 -1 -173 -5 -173 -14 0
-21 167 -26 472 -13 164 6 310 15 326 20 l27 7 -30 13 c-47 18 -198 20 -330 4z"/>
<path d="M6972 4400 c0 -14 2 -19 5 -12 2 6 2 18 0 25 -3 6 -5 1 -5 -13z"/>
<path d="M6981 4334 c0 -11 3 -14 6 -6 3 7 2 16 -1 19 -3 4 -6 -2 -5 -13z"/>
<path d="M6842 3930 c0 -14 2 -19 5 -12 2 6 2 18 0 25 -3 6 -5 1 -5 -13z"/>
<path d="M2869 4065 c110 -118 143 -213 140 -399 -2 -77 1 -121 8 -123 14 -5
19 9 34 101 24 140 -11 302 -86 400 -25 33 -113 86 -143 86 -8 0 13 -29 47
-65z"/>
<path d="M5401 3654 c0 -11 3 -14 6 -6 3 7 2 16 -1 19 -3 4 -6 -2 -5 -13z"/>
<path d="M5411 3614 c0 -11 3 -14 6 -6 3 7 2 16 -1 19 -3 4 -6 -2 -5 -13z"/>
<path d="M4672 3460 c0 -14 2 -19 5 -12 2 6 2 18 0 25 -3 6 -5 1 -5 -13z"/>
<path d="M4681 3414 c0 -11 3 -14 6 -6 3 7 2 16 -1 19 -3 4 -6 -2 -5 -13z"/>
<path d="M4692 3375 c0 -11 3 -29 8 -40 11 -25 11 1 0 35 -6 20 -8 21 -8 5z"/>
<path d="M1125 3460 c9 -16 18 -30 21 -30 2 0 -2 14 -11 30 -9 17 -18 30 -21
30 -2 0 2 -13 11 -30z"/>
<path d="M2110 3190 c6 -11 13 -20 16 -20 2 0 0 9 -6 20 -6 11 -13 20 -16 20
-2 0 0 -9 6 -20z"/>
<path d="M371 2974 c0 -11 3 -14 6 -6 3 7 2 16 -1 19 -3 4 -6 -2 -5 -13z"/>
<path d="M400 2886 c0 -11 50 -106 55 -106 3 0 -7 24 -21 53 -28 55 -34 65
-34 53z"/>
<path d="M469 2755 c5 -11 17 -29 26 -40 l16 -20 -10 20 c-5 11 -17 29 -26 40
l-16 20 10 -20z"/>
<path d="M585 2600 c10 -11 20 -20 23 -20 3 0 -3 9 -13 20 -10 11 -20 20 -23
20 -3 0 3 -9 13 -20z"/>
<path d="M51 4528 c-7 -32 -10 -68 -8 -80 3 -18 5 -16 6 8 0 17 6 45 12 62 6
17 9 39 7 49 -3 10 -10 -8 -17 -39z"/>
</g>
</svg>
